<svg xmlns="http://www.w3.org/2000/svg" xmlns:xlink="http://www.w3.org/1999/xlink" width="2120" height="1247.47"><rect width="2120" height="1247.47" rx="0" ry="0" class="a"/><svg height="1237.47" viewBox="0 0 211 123.747" width="2110" x="5" xmlns="http://www.w3.org/2000/svg" xmlns:xlink="http://www.w3.org/1999/xlink" y="5"><style>@keyframes j{0%{transform:translateX(0)}4.56%{transform:translateX(-422px)}5.1%{transform:translateX(-844px)}8.82%{transform:translateX(-1055px)}10.43%{transform:translateX(-1477px)}10.44%{transform:translateX(-1688px)}15.24%{transform:translateX(-1899px)}15.26%{transform:translateX(-2110px)}15.62%{transform:translateX(-2532px)}15.63%{transform:translateX(-2954px)}15.64%{transform:translateX(-3165px)}15.66%{transform:translateX(-3376px)}15.68%{transform:translateX(-3798px)}15.71%{transform:translateX(-4220px)}15.74%{transform:translateX(-4642px)}25.56%{transform:translateX(-4853px)}25.71%{transform:translateX(-5064px)}26.07%{transform:translateX(-5486px)}26.13%{transform:translateX(-5908px)}34.95%{transform:translateX(-6119px)}48.58%{transform:translateX(-6330px)}59.23%{transform:translateX(-6541px)}60.63%{transform:translateX(-6752px)}61.07%{transform:translateX(-6963px)}80.29%{transform:translateX(-7174px)}80.3%{transform:translateX(-7385px)}89.06%{transform:translateX(-7596px)}89.32%{transform:translateX(-7807px)}90.84%{transform:translateX(-8229px)}90.85%{transform:translateX(-8440px)}90.86%{transform:translateX(-8651px)}94.23%{transform:translateX(-9073px)}97.09%{transform:translateX(-9284px)}97.53%{transform:translateX(-9706px)}98.13%{transform:translateX(-10128px)}to{transform:translateX(-10339px)}}.a{fill:#282d35}.c{fill:#b9c0cb;white-space:pre}.d{fill:#71bef2}.e,.f,.g{white-space:pre}.f,.g{fill:#71bef2}.g{fill:#a8cc8c}</style><g font-family="Monaco,Consolas,Menlo,'Bitstream Vera Sans Mono','Powerline Symbols',monospace" font-size="1.67"><defs><symbol id="1">0<text y="1.67" class="c">ivo@ivo-Macmini</text><path class="d" d="M17.034 0h4v2.171h-4z"/><text x="17.034" y="1.67" class="e"> ~</text><text x="21.042" y="1.67" class="f"></text></symbol><symbol id="2">0<text y="1.67" class="c">ivo@ivo-Macmini</text><path class="d" d="M17.034 0h4v2.171h-4z"/><text x="17.034" y="1.67" class="e"> ~</text><text x="21.042" y="1.67" class="f"></text><text x="23.046" y="1.67" class="c">npx</text><text x="27.054" y="1.67" class="c">audiomoth-visualizer</text><text x="48.096" y="1.67" class="c">Musik/DawnChorus/test</text><text x="70.14" y="1.67" class="c">Musik/DawnChorus/generated</text><text x="97.194" y="1.67" class="c">--title=&quot;Session</text><text x="114.228" y="1.67" class="c">title&quot;</text><text x="121.242" y="1.67" class="c">--locale=de-DE</text><text x="136.272" y="1.67" class="c">--timezone=Europe/Berlin</text></symbol><symbol id="3"><text y="1.67" class="c">$</text><text x="2.004" y="1.67" class="g">soxi</text><text x="7.014" y="1.67" class="c">-D</text><text x="10.02" y="1.67" class="c">Musik/DawnChorus/test/20210524_040440.WAV</text></symbol><symbol id="4"><text y="1.67" class="c">$</text><text x="2.004" y="1.67" class="g">soxi</text><text x="7.014" y="1.67" class="c">-D</text><text x="10.02" y="1.67" class="c">Musik/DawnChorus/test/20210524_040550.WAV</text></symbol><symbol id="5"><text y="1.67" class="c">10.000000</text></symbol><symbol id="6"><text y="1.67" class="c">making</text><text x="7.014" y="1.67" class="c">spectrogram</text><text x="19.038" y="1.67" class="c">from</text><text x="24.048" y="1.67" class="c">0</text><text x="26.052" y="1.67" class="c">to</text><text x="29.058" y="1.67" class="c">10</text><text x="32.064" y="1.67" class="c">seconds...</text></symbol><symbol id="7"><text y="1.67" class="c">$</text><text x="2.004" y="1.67" class="g">sox</text><text x="6.012" y="1.67" class="c">Musik/DawnChorus/test/20210524_040550.WAV</text><text x="48.096" y="1.67" class="c">-n</text><text x="51.102" y="1.67" class="c">rate</text><text x="56.112" y="1.67" class="c">24k</text><text x="60.12" y="1.67" class="c">trim</text><text x="65.13" y="1.67" class="c">0</text><text x="67.134" y="1.67" class="c">10</text><text x="70.14" y="1.67" class="c">spectrogram</text><text x="82.164" y="1.67" class="c">-x</text><text x="85.17" y="1.67" class="c">1136</text><text x="90.18" y="1.67" class="c">-y</text><text x="93.186" y="1.67" class="c">642</text><text x="97.194" y="1.67" class="c">-z</text><text x="100.2" y="1.67" class="c">96</text><text x="103.206" y="1.67" class="c">-w</text><text x="106.212" y="1.67" class="c">hann</text><text x="111.222" y="1.67" class="c">-o</text><text x="114.228" y="1.67" class="c">-</text></symbol><symbol id="8"><text y="1.67" class="c">$</text><text x="2.004" y="1.67" class="g">convert</text><text x="10.02" y="1.67" class="c">PNG:-</text><text x="16.032" y="1.67" class="c">-background</text><text x="28.056" y="1.67" class="c">black</text><text x="34.068" y="1.67" class="c">-gravity</text><text x="43.086" y="1.67" class="c">north</text><text x="49.098" y="1.67" class="c">-extent</text><text x="57.114" y="1.67" class="c">1280x820</text><text x="66.132" y="1.67" class="c">-</text></symbol><symbol id="9"><text y="1.67" class="c">$</text><text x="2.004" y="1.67" class="g">convert</text><text x="10.02" y="1.67" class="c">PNG:-</text><text x="16.032" y="1.67" class="c">-gravity</text><text x="25.05" y="1.67" class="c">south</text><text x="31.062" y="1.67" class="c">-fill</text><text x="37.074" y="1.67" class="c">white</text><text x="43.086" y="1.67" class="c">-pointsize</text><text x="54.108" y="1.67" class="c">36</text><text x="57.114" y="1.67" class="c">-annotate</text><text x="67.134" y="1.67" class="c">+0+10</text><text x="73.146" y="1.67" class="c">$&apos;Session</text><text x="83.166" y="1.67" class="c">title\n</text><text x="91.182" y="1.67" class="c">2021-05-24T04:06:00.000Z&apos;</text><text x="117.234" y="1.67" class="c">Musik/DawnChorus/test/tmp_20210524_0405500.png</text></symbol><symbol id="10"><text y="1.67" class="c">$</text><text x="2.004" y="1.67" class="g">sox</text><text x="6.012" y="1.67" class="c">Musik/DawnChorus/test/20210524_040440.WAV</text><text x="48.096" y="1.67" class="c">-n</text><text x="51.102" y="1.67" class="c">rate</text><text x="56.112" y="1.67" class="c">24k</text><text x="60.12" y="1.67" class="c">trim</text><text x="65.13" y="1.67" class="c">0</text><text x="67.134" y="1.67" class="c">10</text><text x="70.14" y="1.67" class="c">spectrogram</text><text x="82.164" y="1.67" class="c">-x</text><text x="85.17" y="1.67" class="c">1136</text><text x="90.18" y="1.67" class="c">-y</text><text x="93.186" y="1.67" class="c">642</text><text x="97.194" y="1.67" class="c">-z</text><text x="100.2" y="1.67" class="c">96</text><text x="103.206" y="1.67" class="c">-w</text><text x="106.212" y="1.67" class="c">hann</text><text x="111.222" y="1.67" class="c">-o</text><text x="114.228" y="1.67" class="c">-</text></symbol><symbol id="11"><text y="1.67" class="c">$</text><text x="2.004" y="1.67" class="g">convert</text><text x="10.02" y="1.67" class="c">PNG:-</text><text x="16.032" y="1.67" class="c">-gravity</text><text x="25.05" y="1.67" class="c">south</text><text x="31.062" y="1.67" class="c">-fill</text><text x="37.074" y="1.67" class="c">white</text><text x="43.086" y="1.67" class="c">-pointsize</text><text x="54.108" y="1.67" class="c">36</text><text x="57.114" y="1.67" class="c">-annotate</text><text x="67.134" y="1.67" class="c">+0+10</text><text x="73.146" y="1.67" class="c">$&apos;Session</text><text x="83.166" y="1.67" class="c">title\n</text><text x="91.182" y="1.67" class="c">2021-05-24T04:04:50.000Z&apos;</text><text x="117.234" y="1.67" class="c">Musik/DawnChorus/test/tmp_20210524_0404400.png</text></symbol><symbol id="12"><text y="1.67" class="c">$</text><text x="2.004" y="1.67" class="g">convert</text><text x="10.02" y="1.67" class="c">Musik/DawnChorus/test/tmp_20210524_0405500.png</text><text x="57.114" y="1.67" class="c">-resize</text><text x="65.13" y="1.67" class="c">300x170</text><text x="73.146" y="1.67" class="c">/home/ivo/Musik/DawnChorus/generated/images/thumbs/20210524_040550.png</text></symbol><symbol id="13"><text y="1.67" class="c">$</text><text x="2.004" y="1.67" class="g">convert</text><text x="10.02" y="1.67" class="c">Musik/DawnChorus/test/tmp_20210524_0404400.png</text><text x="57.114" y="1.67" class="c">-resize</text><text x="65.13" y="1.67" class="c">300x170</text><text x="73.146" y="1.67" class="c">/home/ivo/Musik/DawnChorus/generated/images/thumbs/20210524_040440.png</text></symbol><symbol id="14"><text y="1.67" class="c">creating</text><text x="9.018" y="1.67" class="c">full</text><text x="14.028" y="1.67" class="c">length</text><text x="21.042" y="1.67" class="c">movie...</text></symbol><symbol id="15"><text y="1.67" class="c">$</text><text x="2.004" y="1.67" class="g">ffmpeg</text><text x="9.018" y="1.67" class="c">-loglevel</text><text x="19.038" y="1.67" class="c">panic</text><text x="25.05" y="1.67" class="c">-framerate</text><text x="36.072" y="1.67" class="c">1/10</text><text x="41.082" y="1.67" class="c">-i</text><text x="44.088" y="1.67" class="c">Musik/DawnChorus/test/tmp_20210524_040550%d.png</text><text x="92.184" y="1.67" class="c">-i</text><text x="95.19" y="1.67" class="c">Musik/DawnChorus/test/20210524_040550.WAV</text><text x="137.274" y="1.67" class="c">-c:v</text><text x="142.284" y="1.67" class="c">libx264</text><text x="150.3" y="1.67" class="c">-y</text><text x="153.306" y="1.67" class="c">-crf</text><text x="158.316" y="1.67" class="c">23</text><text x="161.322" y="1.67" class="c">-pix_fmt</text><text x="170.34" y="1.67" class="c">yuv420p</text><text x="178.356" y="1.67" class="c">/home/ivo/Musik/DawnChorus/genera</text></symbol><symbol id="16"><text y="1.67" class="c">ted/movies/20210524_040550.mp4</text></symbol><symbol id="17"><text y="1.67" class="c">$</text><text x="2.004" y="1.67" class="g">ffmpeg</text><text x="9.018" y="1.67" class="c">-loglevel</text><text x="19.038" y="1.67" class="c">panic</text><text x="25.05" y="1.67" class="c">-framerate</text><text x="36.072" y="1.67" class="c">1/10</text><text x="41.082" y="1.67" class="c">-i</text><text x="44.088" y="1.67" class="c">Musik/DawnChorus/test/tmp_20210524_040440%d.png</text><text x="92.184" y="1.67" class="c">-i</text><text x="95.19" y="1.67" class="c">Musik/DawnChorus/test/20210524_040440.WAV</text><text x="137.274" y="1.67" class="c">-c:v</text><text x="142.284" y="1.67" class="c">libx264</text><text x="150.3" y="1.67" class="c">-y</text><text x="153.306" y="1.67" class="c">-crf</text><text x="158.316" y="1.67" class="c">23</text><text x="161.322" y="1.67" class="c">-pix_fmt</text><text x="170.34" y="1.67" class="c">yuv420p</text><text x="178.356" y="1.67" class="c">/home/ivo/Musik/DawnChorus/genera</text></symbol><symbol id="18"><text y="1.67" class="c">ted/movies/20210524_040440.mp4</text></symbol><symbol id="19"><text y="1.67" class="c">$</text><text x="2.004" y="1.67" class="g">docker</text><text x="9.018" y="1.67" class="c">run</text><text x="13.026" y="1.67" class="c">-v</text><text x="16.032" y="1.67" class="c">/home/ivo/Musik/DawnChorus/generated:/audio</text><text x="60.12" y="1.67" class="c">breallis/birdnet:cpu</text><text x="81.162" y="1.67" class="c">--i</text><text x="85.17" y="1.67" class="c">audio/audios</text><text x="98.196" y="1.67" class="c">--o</text><text x="102.204" y="1.67" class="c">/audio/birdnet</text></symbol><symbol id="20"><text y="1.67" class="c">FILES</text><text x="6.012" y="1.67" class="c">IN</text><text x="9.018" y="1.67" class="c">DATASET:</text><text x="18.036" y="1.67" class="c">2</text></symbol><symbol id="21"><text y="1.67" class="c">LOADING</text><text x="8.016" y="1.67" class="c">SNAPSHOT</text><text x="17.034" y="1.67" class="c">BirdNET_Soundscape_Model.pkl</text><text x="46.092" y="1.67" class="c">...</text><text x="50.1" y="1.67" class="c">DONE!</text></symbol><symbol id="22"><text y="1.67" class="c">BUILDING</text><text x="9.018" y="1.67" class="c">BirdNET</text><text x="17.034" y="1.67" class="c">MODEL...</text><text x="26.052" y="1.67" class="c">DONE!</text></symbol><symbol id="23"><text y="1.67" class="c">IMPORTING</text><text x="10.02" y="1.67" class="c">MODEL</text><text x="16.032" y="1.67" class="c">PARAMS...</text><text x="26.052" y="1.67" class="c">DONE!</text></symbol><symbol id="24"><text y="1.67" class="c">COMPILING</text><text x="10.02" y="1.67" class="c">THEANO</text><text x="17.034" y="1.67" class="c">TEST</text><text x="22.044" y="1.67" class="c">FUNCTION</text><text x="31.062" y="1.67" class="c">FUNCTION...</text><text x="43.086" y="1.67" class="c">DONE!</text></symbol><symbol id="25"><text y="1.67" class="c">LOADING</text><text x="8.016" y="1.67" class="c">eBIRD</text><text x="14.028" y="1.67" class="c">GRID</text><text x="19.038" y="1.67" class="c">DATA...</text><text x="27.054" y="1.67" class="c">DONE!</text><text x="33.066" y="1.67" class="c">13800</text><text x="39.078" y="1.67" class="c">GRID</text><text x="44.088" y="1.67" class="c">CELLS</text></symbol><symbol id="26"><text y="1.67" class="c">SID:</text><text x="5.01" y="1.67" class="c">1</text><text x="7.014" y="1.67" class="c">PROCESSING:</text><text x="19.038" y="1.67" class="c">20210524_040550.WAV</text><text x="39.078" y="1.67" class="c">SPECIES:</text><text x="48.096" y="1.67" class="c">987</text><text x="52.104" y="1.67" class="c">DETECTIONS:</text><text x="64.128" y="1.67" class="c">4</text><text x="66.132" y="1.67" class="c">TIME:</text><text x="72.144" y="1.67" class="c">10</text></symbol><symbol id="27"><text y="1.67" class="c">SID:</text><text x="5.01" y="1.67" class="c">2</text><text x="7.014" y="1.67" class="c">PROCESSING:</text><text x="19.038" y="1.67" class="c">20210524_040440.WAV</text><text x="39.078" y="1.67" class="c">SPECIES:</text><text x="48.096" y="1.67" class="c">987</text><text x="52.104" y="1.67" class="c">DETECTIONS:</text><text x="64.128" y="1.67" class="c">4</text><text x="66.132" y="1.67" class="c">TIME:</text><text x="72.144" y="1.67" class="c">10</text></symbol><symbol id="28"><text y="1.67" class="c">Done:</text><text x="6.012" y="1.67" class="c">file:///home/ivo/Musik/DawnChorus/generated/index.html</text></symbol><symbol id="a"><path fill="transparent" d="M0 0h211v57H0z"/></symbol><symbol id="b"><path fill="#6f7683" d="M0 0h1.102v2.171H0z"/></symbol></defs><path class="a" d="M0 0h211v123.747H0z"/><g style="animation-duration:33.282913s;animation-iteration-count:infinite;animation-name:j;animation-timing-function:steps(1,end)"><svg width="10550"><svg><use xlink:href="#a"/><use xlink:href="#b" x="-.004"/></svg><svg x="211"><use xlink:href="#a"/><use xlink:href="#b" x="-.004"/></svg><svg x="422"><use xlink:href="#a"/><use xlink:href="#b" x="-.004"/></svg><svg x="633"><use xlink:href="#a"/><use xlink:href="#b" x="22.996"/><use xlink:href="#1"/></svg><svg x="844"><use xlink:href="#a"/><use xlink:href="#b" x="22.996"/><use xlink:href="#1"/></svg><svg x="1055"><use xlink:href="#a"/><use xlink:href="#b" x="159.996"/>0<text y="1.67" class="c">ivo@ivo-Macmini</text><path class="d" d="M17.034 0h4v2.171h-4z"/><text x="17.034" y="1.67" class="e"> ~</text><text x="21.042" y="1.67" class="f"></text><path fill="#b9c0cb" d="M23.046 0h137v2.171h-137z"/><text x="23.046" y="1.67" style="white-space:pre" fill="#282d35">npx audiomoth-visualizer Musik/DawnChorus/test Musik/DawnChorus/generated --title=&quot;Session title&quot; --locale=de-DE --timezone=Europe/Berlin</text></svg><svg x="1266"><use xlink:href="#a"/><use xlink:href="#b" x="159.996"/><use xlink:href="#2"/></svg><svg x="1477"><use xlink:href="#a"/><use xlink:href="#b" x="-.004" y="2.146"/><use xlink:href="#2"/></svg><svg x="1688"><use xlink:href="#a"/><use xlink:href="#b" x="-.004" y="2.146"/><use xlink:href="#2"/></svg><svg x="1899"><use xlink:href="#a"/><use xlink:href="#b" x="-.004" y="4.317"/><use xlink:href="#2"/><use xlink:href="#3" y="2.171"/></svg><svg x="2110"><use xlink:href="#a"/><use xlink:href="#b" x="-.004" y="6.488"/><use xlink:href="#2"/><use xlink:href="#3" y="2.171"/><use xlink:href="#4" y="4.342"/></svg><svg x="2321"><use xlink:href="#a"/><use xlink:href="#b" x="-.004" y="8.659"/><use xlink:href="#2"/><use xlink:href="#3" y="2.171"/><use xlink:href="#4" y="4.342"/><use xlink:href="#5" y="6.513"/></svg><svg x="2532"><use xlink:href="#a"/><use xlink:href="#b" x="-.004" y="10.83"/><use xlink:href="#2"/><use xlink:href="#3" y="2.171"/><use xlink:href="#4" y="4.342"/><use xlink:href="#5" y="6.513"/><use xlink:href="#5" y="8.684"/></svg><svg x="2743"><use xlink:href="#a"/><use xlink:href="#b" x="-.004" y="13.001"/><use xlink:href="#2"/><use xlink:href="#3" y="2.171"/><use xlink:href="#4" y="4.342"/><use xlink:href="#5" y="6.513"/><use xlink:href="#5" y="8.684"/><use xlink:href="#6" y="10.855"/></svg><svg x="2954"><use xlink:href="#a"/><use xlink:href="#b" x="-.004" y="15.172"/><use xlink:href="#2"/><use xlink:href="#3" y="2.171"/><use xlink:href="#4" y="4.342"/><use xlink:href="#5" y="6.513"/><use xlink:href="#5" y="8.684"/><use xlink:href="#6" y="10.855"/><use xlink:href="#7" y="13.026"/></svg><svg x="3165"><use xlink:href="#a"/><use xlink:href="#b" x="-.004" y="17.343"/><use xlink:href="#2"/><use xlink:href="#3" y="2.171"/><use xlink:href="#4" y="4.342"/><use xlink:href="#5" y="6.513"/><use xlink:href="#5" y="8.684"/><use xlink:href="#6" y="10.855"/><use xlink:href="#7" y="13.026"/><use xlink:href="#8" y="15.197"/></svg><svg x="3376"><use xlink:href="#a"/><use xlink:href="#b" x="-.004" y="19.514"/><use xlink:href="#2"/><use xlink:href="#3" y="2.171"/><use xlink:href="#4" y="4.342"/><use xlink:href="#5" y="6.513"/><use xlink:href="#5" y="8.684"/><use xlink:href="#6" y="10.855"/><use xlink:href="#7" y="13.026"/><use xlink:href="#8" y="15.197"/><use xlink:href="#9" y="17.368"/></svg><svg x="3587"><use xlink:href="#a"/><use xlink:href="#b" x="-.004" y="21.685"/><use xlink:href="#2"/><use xlink:href="#3" y="2.171"/><use xlink:href="#4" y="4.342"/><use xlink:href="#5" y="6.513"/><use xlink:href="#5" y="8.684"/><use xlink:href="#6" y="10.855"/><use xlink:href="#7" y="13.026"/><use xlink:href="#8" y="15.197"/><use xlink:href="#9" y="17.368"/><use xlink:href="#6" y="19.539"/></svg><svg x="3798"><use xlink:href="#a"/><use xlink:href="#b" x="-.004" y="23.856"/><use xlink:href="#2"/><use xlink:href="#3" y="2.171"/><use xlink:href="#4" y="4.342"/><use xlink:href="#5" y="6.513"/><use xlink:href="#5" y="8.684"/><use xlink:href="#6" y="10.855"/><use xlink:href="#7" y="13.026"/><use xlink:href="#8" y="15.197"/><use xlink:href="#9" y="17.368"/><use xlink:href="#6" y="19.539"/><use xlink:href="#10" y="21.71"/></svg><svg x="4009"><use xlink:href="#a"/><use xlink:href="#b" x="66.996" y="23.856"/><use xlink:href="#2"/><use xlink:href="#3" y="2.171"/><use xlink:href="#4" y="4.342"/><use xlink:href="#5" y="6.513"/><use xlink:href="#5" y="8.684"/><use xlink:href="#6" y="10.855"/><use xlink:href="#7" y="13.026"/><use xlink:href="#8" y="15.197"/><use xlink:href="#9" y="17.368"/><use xlink:href="#6" y="19.539"/><use xlink:href="#10" y="21.71"/><use xlink:href="#8" y="23.881"/></svg><svg x="4220"><use xlink:href="#a"/><use xlink:href="#b" x="-.004" y="26.027"/><use xlink:href="#2"/><use xlink:href="#3" y="2.171"/><use xlink:href="#4" y="4.342"/><use xlink:href="#5" y="6.513"/><use xlink:href="#5" y="8.684"/><use xlink:href="#6" y="10.855"/><use xlink:href="#7" y="13.026"/><use xlink:href="#8" y="15.197"/><use xlink:href="#9" y="17.368"/><use xlink:href="#6" y="19.539"/><use xlink:href="#10" y="21.71"/><use xlink:href="#8" y="23.881"/></svg><svg x="4431"><use xlink:href="#a"/><use xlink:href="#b" x="162.996" y="26.027"/><use xlink:href="#2"/><use xlink:href="#3" y="2.171"/><use xlink:href="#4" y="4.342"/><use xlink:href="#5" y="6.513"/><use xlink:href="#5" y="8.684"/><use xlink:href="#6" y="10.855"/><use xlink:href="#7" y="13.026"/><use xlink:href="#8" y="15.197"/><use xlink:href="#9" y="17.368"/><use xlink:href="#6" y="19.539"/><use xlink:href="#10" y="21.71"/><use xlink:href="#8" y="23.881"/><use xlink:href="#11" y="26.052"/></svg><svg x="4642"><use xlink:href="#a"/><use xlink:href="#b" x="-.004" y="28.198"/><use xlink:href="#2"/><use xlink:href="#3" y="2.171"/><use xlink:href="#4" y="4.342"/><use xlink:href="#5" y="6.513"/><use xlink:href="#5" y="8.684"/><use xlink:href="#6" y="10.855"/><use xlink:href="#7" y="13.026"/><use xlink:href="#8" y="15.197"/><use xlink:href="#9" y="17.368"/><use xlink:href="#6" y="19.539"/><use xlink:href="#10" y="21.71"/><use xlink:href="#8" y="23.881"/><use xlink:href="#11" y="26.052"/></svg><svg x="4853"><use xlink:href="#a"/><use xlink:href="#b" x="-.004" y="30.369"/><use xlink:href="#2"/><use xlink:href="#3" y="2.171"/><use xlink:href="#4" y="4.342"/><use xlink:href="#5" y="6.513"/><use xlink:href="#5" y="8.684"/><use xlink:href="#6" y="10.855"/><use xlink:href="#7" y="13.026"/><use xlink:href="#8" y="15.197"/><use xlink:href="#9" y="17.368"/><use xlink:href="#6" y="19.539"/><use xlink:href="#10" y="21.71"/><use xlink:href="#8" y="23.881"/><use xlink:href="#11" y="26.052"/><use xlink:href="#12" y="28.223"/></svg><svg x="5064"><use xlink:href="#a"/><use xlink:href="#b" x="-.004" y="32.54"/><use xlink:href="#2"/><use xlink:href="#3" y="2.171"/><use xlink:href="#4" y="4.342"/><use xlink:href="#5" y="6.513"/><use xlink:href="#5" y="8.684"/><use xlink:href="#6" y="10.855"/><use xlink:href="#7" y="13.026"/><use xlink:href="#8" y="15.197"/><use xlink:href="#9" y="17.368"/><use xlink:href="#6" y="19.539"/><use xlink:href="#10" y="21.71"/><use xlink:href="#8" y="23.881"/><use xlink:href="#11" y="26.052"/><use xlink:href="#12" y="28.223"/><use xlink:href="#13" y="30.394"/></svg><svg x="5275"><use xlink:href="#a"/><use xlink:href="#b" x="-.004" y="34.711"/><use xlink:href="#2"/><use xlink:href="#3" y="2.171"/><use xlink:href="#4" y="4.342"/><use xlink:href="#5" y="6.513"/><use xlink:href="#5" y="8.684"/><use xlink:href="#6" y="10.855"/><use xlink:href="#7" y="13.026"/><use xlink:href="#8" y="15.197"/><use xlink:href="#9" y="17.368"/><use xlink:href="#6" y="19.539"/><use xlink:href="#10" y="21.71"/><use xlink:href="#8" y="23.881"/><use xlink:href="#11" y="26.052"/><use xlink:href="#12" y="28.223"/><use xlink:href="#13" y="30.394"/><use xlink:href="#14" y="32.565"/></svg><svg x="5486"><use xlink:href="#a"/><use xlink:href="#b" x="-.004" y="39.053"/><use xlink:href="#2"/><use xlink:href="#3" y="2.171"/><use xlink:href="#4" y="4.342"/><use xlink:href="#5" y="6.513"/><use xlink:href="#5" y="8.684"/><use xlink:href="#6" y="10.855"/><use xlink:href="#7" y="13.026"/><use xlink:href="#8" y="15.197"/><use xlink:href="#9" y="17.368"/><use xlink:href="#6" y="19.539"/><use xlink:href="#10" y="21.71"/><use xlink:href="#8" y="23.881"/><use xlink:href="#11" y="26.052"/><use xlink:href="#12" y="28.223"/><use xlink:href="#13" y="30.394"/><use xlink:href="#14" y="32.565"/><use xlink:href="#15" y="34.736"/><use xlink:href="#16" y="36.907"/></svg><svg x="5697"><use xlink:href="#a"/><use xlink:href="#b" x="-.004" y="41.224"/><use xlink:href="#2"/><use xlink:href="#3" y="2.171"/><use xlink:href="#4" y="4.342"/><use xlink:href="#5" y="6.513"/><use xlink:href="#5" y="8.684"/><use xlink:href="#6" y="10.855"/><use xlink:href="#7" y="13.026"/><use xlink:href="#8" y="15.197"/><use xlink:href="#9" y="17.368"/><use xlink:href="#6" y="19.539"/><use xlink:href="#10" y="21.71"/><use xlink:href="#8" y="23.881"/><use xlink:href="#11" y="26.052"/><use xlink:href="#12" y="28.223"/><use xlink:href="#13" y="30.394"/><use xlink:href="#14" y="32.565"/><use xlink:href="#15" y="34.736"/><use xlink:href="#16" y="36.907"/><use xlink:href="#14" y="39.078"/></svg><svg x="5908"><use xlink:href="#a"/><use xlink:href="#b" x="-.004" y="45.566"/><use xlink:href="#2"/><use xlink:href="#3" y="2.171"/><use xlink:href="#4" y="4.342"/><use xlink:href="#5" y="6.513"/><use xlink:href="#5" y="8.684"/><use xlink:href="#6" y="10.855"/><use xlink:href="#7" y="13.026"/><use xlink:href="#8" y="15.197"/><use xlink:href="#9" y="17.368"/><use xlink:href="#6" y="19.539"/><use xlink:href="#10" y="21.71"/><use xlink:href="#8" y="23.881"/><use xlink:href="#11" y="26.052"/><use xlink:href="#12" y="28.223"/><use xlink:href="#13" y="30.394"/><use xlink:href="#14" y="32.565"/><use xlink:href="#15" y="34.736"/><use xlink:href="#16" y="36.907"/><use xlink:href="#14" y="39.078"/><use xlink:href="#17" y="41.249"/><use xlink:href="#18" y="43.42"/></svg><svg x="6119"><use xlink:href="#a"/><use xlink:href="#b" x="-.004" y="47.737"/><use xlink:href="#2"/><use xlink:href="#3" y="2.171"/><use xlink:href="#4" y="4.342"/><use xlink:href="#5" y="6.513"/><use xlink:href="#5" y="8.684"/><use xlink:href="#6" y="10.855"/><use xlink:href="#7" y="13.026"/><use xlink:href="#8" y="15.197"/><use xlink:href="#9" y="17.368"/><use xlink:href="#6" y="19.539"/><use xlink:href="#10" y="21.71"/><use xlink:href="#8" y="23.881"/><use xlink:href="#11" y="26.052"/><use xlink:href="#12" y="28.223"/><use xlink:href="#13" y="30.394"/><use xlink:href="#14" y="32.565"/><use xlink:href="#15" y="34.736"/><use xlink:href="#16" y="36.907"/><use xlink:href="#14" y="39.078"/><use xlink:href="#17" y="41.249"/><use xlink:href="#18" y="43.42"/><use xlink:href="#19" y="45.591"/></svg><svg x="6330"><use xlink:href="#a"/><use xlink:href="#b" x="49.996" y="49.908"/><use xlink:href="#2"/><use xlink:href="#3" y="2.171"/><use xlink:href="#4" y="4.342"/><use xlink:href="#5" y="6.513"/><use xlink:href="#5" y="8.684"/><use xlink:href="#6" y="10.855"/><use xlink:href="#7" y="13.026"/><use xlink:href="#8" y="15.197"/><use xlink:href="#9" y="17.368"/><use xlink:href="#6" y="19.539"/><use xlink:href="#10" y="21.71"/><use xlink:href="#8" y="23.881"/><use xlink:href="#11" y="26.052"/><use xlink:href="#12" y="28.223"/><use xlink:href="#13" y="30.394"/><use xlink:href="#14" y="32.565"/><use xlink:href="#15" y="34.736"/><use xlink:href="#16" y="36.907"/><use xlink:href="#14" y="39.078"/><use xlink:href="#17" y="41.249"/><use xlink:href="#18" y="43.42"/><use xlink:href="#19" y="45.591"/><use xlink:href="#20" y="47.762"/><text y="51.603" class="c">LOADING</text><text x="8.016" y="51.603" class="c">SNAPSHOT</text><text x="17.034" y="51.603" class="c">BirdNET_Soundscape_Model.pkl</text><text x="46.092" y="51.603" class="c">...</text></svg><svg x="6541"><use xlink:href="#a"/><use xlink:href="#b" x="25.996" y="52.079"/><use xlink:href="#2"/><use xlink:href="#3" y="2.171"/><use xlink:href="#4" y="4.342"/><use xlink:href="#5" y="6.513"/><use xlink:href="#5" y="8.684"/><use xlink:href="#6" y="10.855"/><use xlink:href="#7" y="13.026"/><use xlink:href="#8" y="15.197"/><use xlink:href="#9" y="17.368"/><use xlink:href="#6" y="19.539"/><use xlink:href="#10" y="21.71"/><use xlink:href="#8" y="23.881"/><use xlink:href="#11" y="26.052"/><use xlink:href="#12" y="28.223"/><use xlink:href="#13" y="30.394"/><use xlink:href="#14" y="32.565"/><use xlink:href="#15" y="34.736"/><use xlink:href="#16" y="36.907"/><use xlink:href="#14" y="39.078"/><use xlink:href="#17" y="41.249"/><use xlink:href="#18" y="43.42"/><use xlink:href="#19" y="45.591"/><use xlink:href="#20" y="47.762"/><use xlink:href="#21" y="49.933"/><text y="53.774" class="c">BUILDING</text><text x="9.018" y="53.774" class="c">BirdNET</text><text x="17.034" y="53.774" class="c">MODEL...</text></svg><svg x="6752"><use xlink:href="#a"/><use xlink:href="#b" x="25.996" y="54.25"/><use xlink:href="#2"/><use xlink:href="#3" y="2.171"/><use xlink:href="#4" y="4.342"/><use xlink:href="#5" y="6.513"/><use xlink:href="#5" y="8.684"/><use xlink:href="#6" y="10.855"/><use xlink:href="#7" y="13.026"/><use xlink:href="#8" y="15.197"/><use xlink:href="#9" y="17.368"/><use xlink:href="#6" y="19.539"/><use xlink:href="#10" y="21.71"/><use xlink:href="#8" y="23.881"/><use xlink:href="#11" y="26.052"/><use xlink:href="#12" y="28.223"/><use xlink:href="#13" y="30.394"/><use xlink:href="#14" y="32.565"/><use xlink:href="#15" y="34.736"/><use xlink:href="#16" y="36.907"/><use xlink:href="#14" y="39.078"/><use xlink:href="#17" y="41.249"/><use xlink:href="#18" y="43.42"/><use xlink:href="#19" y="45.591"/><use xlink:href="#20" y="47.762"/><use xlink:href="#21" y="49.933"/><use xlink:href="#22" y="52.104"/><text y="55.945" class="c">IMPORTING</text><text x="10.02" y="55.945" class="c">MODEL</text><text x="16.032" y="55.945" class="c">PARAMS...</text></svg><svg x="6963"><use xlink:href="#a"/><use xlink:href="#b" x="42.996" y="56.421"/><use xlink:href="#2"/><use xlink:href="#3" y="2.171"/><use xlink:href="#4" y="4.342"/><use xlink:href="#5" y="6.513"/><use xlink:href="#5" y="8.684"/><use xlink:href="#6" y="10.855"/><use xlink:href="#7" y="13.026"/><use xlink:href="#8" y="15.197"/><use xlink:href="#9" y="17.368"/><use xlink:href="#6" y="19.539"/><use xlink:href="#10" y="21.71"/><use xlink:href="#8" y="23.881"/><use xlink:href="#11" y="26.052"/><use xlink:href="#12" y="28.223"/><use xlink:href="#13" y="30.394"/><use xlink:href="#14" y="32.565"/><use xlink:href="#15" y="34.736"/><use xlink:href="#16" y="36.907"/><use xlink:href="#14" y="39.078"/><use xlink:href="#17" y="41.249"/><use xlink:href="#18" y="43.42"/><use xlink:href="#19" y="45.591"/><use xlink:href="#20" y="47.762"/><use xlink:href="#21" y="49.933"/><use xlink:href="#22" y="52.104"/><use xlink:href="#23" y="54.275"/><text y="58.116" class="c">COMPILING</text><text x="10.02" y="58.116" class="c">THEANO</text><text x="17.034" y="58.116" class="c">TEST</text><text x="22.044" y="58.116" class="c">FUNCTION</text><text x="31.062" y="58.116" class="c">FUNCTION...</text></svg><svg x="7174"><use xlink:href="#a"/><use xlink:href="#b" x="-.004" y="58.592"/><use xlink:href="#2"/><use xlink:href="#3" y="2.171"/><use xlink:href="#4" y="4.342"/><use xlink:href="#5" y="6.513"/><use xlink:href="#5" y="8.684"/><use xlink:href="#6" y="10.855"/><use xlink:href="#7" y="13.026"/><use xlink:href="#8" y="15.197"/><use xlink:href="#9" y="17.368"/><use xlink:href="#6" y="19.539"/><use xlink:href="#10" y="21.71"/><use xlink:href="#8" y="23.881"/><use xlink:href="#11" y="26.052"/><use xlink:href="#12" y="28.223"/><use xlink:href="#13" y="30.394"/><use xlink:href="#14" y="32.565"/><use xlink:href="#15" y="34.736"/><use xlink:href="#16" y="36.907"/><use xlink:href="#14" y="39.078"/><use xlink:href="#17" y="41.249"/><use xlink:href="#18" y="43.42"/><use xlink:href="#19" y="45.591"/><use xlink:href="#20" y="47.762"/><use xlink:href="#21" y="49.933"/><use xlink:href="#22" y="52.104"/><use xlink:href="#23" y="54.275"/><use xlink:href="#24" y="56.446"/></svg><svg x="7385"><use xlink:href="#a"/><use xlink:href="#b" x="26.996" y="58.592"/><use xlink:href="#2"/><use xlink:href="#3" y="2.171"/><use xlink:href="#4" y="4.342"/><use xlink:href="#5" y="6.513"/><use xlink:href="#5" y="8.684"/><use xlink:href="#6" y="10.855"/><use xlink:href="#7" y="13.026"/><use xlink:href="#8" y="15.197"/><use xlink:href="#9" y="17.368"/><use xlink:href="#6" y="19.539"/><use xlink:href="#10" y="21.71"/><use xlink:href="#8" y="23.881"/><use xlink:href="#11" y="26.052"/><use xlink:href="#12" y="28.223"/><use xlink:href="#13" y="30.394"/><use xlink:href="#14" y="32.565"/><use xlink:href="#15" y="34.736"/><use xlink:href="#16" y="36.907"/><use xlink:href="#14" y="39.078"/><use xlink:href="#17" y="41.249"/><use xlink:href="#18" y="43.42"/><use xlink:href="#19" y="45.591"/><use xlink:href="#20" y="47.762"/><use xlink:href="#21" y="49.933"/><use xlink:href="#22" y="52.104"/><use xlink:href="#23" y="54.275"/><use xlink:href="#24" y="56.446"/><text y="60.287" class="c">LOADING</text><text x="8.016" y="60.287" class="c">eBIRD</text><text x="14.028" y="60.287" class="c">GRID</text><text x="19.038" y="60.287" class="c">DATA...</text></svg><svg x="7596"><use xlink:href="#a"/><use xlink:href="#b" x="-.004" y="60.763"/><use xlink:href="#2"/><use xlink:href="#3" y="2.171"/><use xlink:href="#4" y="4.342"/><use xlink:href="#5" y="6.513"/><use xlink:href="#5" y="8.684"/><use xlink:href="#6" y="10.855"/><use xlink:href="#7" y="13.026"/><use xlink:href="#8" y="15.197"/><use xlink:href="#9" y="17.368"/><use xlink:href="#6" y="19.539"/><use xlink:href="#10" y="21.71"/><use xlink:href="#8" y="23.881"/><use xlink:href="#11" y="26.052"/><use xlink:href="#12" y="28.223"/><use xlink:href="#13" y="30.394"/><use xlink:href="#14" y="32.565"/><use xlink:href="#15" y="34.736"/><use xlink:href="#16" y="36.907"/><use xlink:href="#14" y="39.078"/><use xlink:href="#17" y="41.249"/><use xlink:href="#18" y="43.42"/><use xlink:href="#19" y="45.591"/><use xlink:href="#20" y="47.762"/><use xlink:href="#21" y="49.933"/><use xlink:href="#22" y="52.104"/><use xlink:href="#23" y="54.275"/><use xlink:href="#24" y="56.446"/><use xlink:href="#25" y="58.617"/></svg><svg x="7807"><use xlink:href="#a"/><use xlink:href="#b" x="51.996" y="60.763"/><use xlink:href="#2"/><use xlink:href="#3" y="2.171"/><use xlink:href="#4" y="4.342"/><use xlink:href="#5" y="6.513"/><use xlink:href="#5" y="8.684"/><use xlink:href="#6" y="10.855"/><use xlink:href="#7" y="13.026"/><use xlink:href="#8" y="15.197"/><use xlink:href="#9" y="17.368"/><use xlink:href="#6" y="19.539"/><use xlink:href="#10" y="21.71"/><use xlink:href="#8" y="23.881"/><use xlink:href="#11" y="26.052"/><use xlink:href="#12" y="28.223"/><use xlink:href="#13" y="30.394"/><use xlink:href="#14" y="32.565"/><use xlink:href="#15" y="34.736"/><use xlink:href="#16" y="36.907"/><use xlink:href="#14" y="39.078"/><use xlink:href="#17" y="41.249"/><use xlink:href="#18" y="43.42"/><use xlink:href="#19" y="45.591"/><use xlink:href="#20" y="47.762"/><use xlink:href="#21" y="49.933"/><use xlink:href="#22" y="52.104"/><use xlink:href="#23" y="54.275"/><use xlink:href="#24" y="56.446"/><use xlink:href="#25" y="58.617"/><text y="62.458" class="c">SID:</text><text x="5.01" y="62.458" class="c">1</text><text x="7.014" y="62.458" class="c">PROCESSING:</text><text x="19.038" y="62.458" class="c">20210524_040550.WAV</text><text x="39.078" y="62.458" class="c">SPECIES:</text><text x="48.096" y="62.458" class="c">987</text></svg><svg x="8018"><use xlink:href="#a"/><use xlink:href="#b" x="65.996" y="60.763"/><use xlink:href="#2"/><use xlink:href="#3" y="2.171"/><use xlink:href="#4" y="4.342"/><use xlink:href="#5" y="6.513"/><use xlink:href="#5" y="8.684"/><use xlink:href="#6" y="10.855"/><use xlink:href="#7" y="13.026"/><use xlink:href="#8" y="15.197"/><use xlink:href="#9" y="17.368"/><use xlink:href="#6" y="19.539"/><use xlink:href="#10" y="21.71"/><use xlink:href="#8" y="23.881"/><use xlink:href="#11" y="26.052"/><use xlink:href="#12" y="28.223"/><use xlink:href="#13" y="30.394"/><use xlink:href="#14" y="32.565"/><use xlink:href="#15" y="34.736"/><use xlink:href="#16" y="36.907"/><use xlink:href="#14" y="39.078"/><use xlink:href="#17" y="41.249"/><use xlink:href="#18" y="43.42"/><use xlink:href="#19" y="45.591"/><use xlink:href="#20" y="47.762"/><use xlink:href="#21" y="49.933"/><use xlink:href="#22" y="52.104"/><use xlink:href="#23" y="54.275"/><use xlink:href="#24" y="56.446"/><use xlink:href="#25" y="58.617"/><text y="62.458" class="c">SID:</text><text x="5.01" y="62.458" class="c">1</text><text x="7.014" y="62.458" class="c">PROCESSING:</text><text x="19.038" y="62.458" class="c">20210524_040550.WAV</text><text x="39.078" y="62.458" class="c">SPECIES:</text><text x="48.096" y="62.458" class="c">987</text><text x="52.104" y="62.458" class="c">DETECTIONS:</text><text x="64.128" y="62.458" class="c">4</text></svg><svg x="8229"><use xlink:href="#a"/><use xlink:href="#b" x="-.004" y="62.934"/><use xlink:href="#2"/><use xlink:href="#3" y="2.171"/><use xlink:href="#4" y="4.342"/><use xlink:href="#5" y="6.513"/><use xlink:href="#5" y="8.684"/><use xlink:href="#6" y="10.855"/><use xlink:href="#7" y="13.026"/><use xlink:href="#8" y="15.197"/><use xlink:href="#9" y="17.368"/><use xlink:href="#6" y="19.539"/><use xlink:href="#10" y="21.71"/><use xlink:href="#8" y="23.881"/><use xlink:href="#11" y="26.052"/><use xlink:href="#12" y="28.223"/><use xlink:href="#13" y="30.394"/><use xlink:href="#14" y="32.565"/><use xlink:href="#15" y="34.736"/><use xlink:href="#16" y="36.907"/><use xlink:href="#14" y="39.078"/><use xlink:href="#17" y="41.249"/><use xlink:href="#18" y="43.42"/><use xlink:href="#19" y="45.591"/><use xlink:href="#20" y="47.762"/><use xlink:href="#21" y="49.933"/><use xlink:href="#22" y="52.104"/><use xlink:href="#23" y="54.275"/><use xlink:href="#24" y="56.446"/><use xlink:href="#25" y="58.617"/><use xlink:href="#26" y="60.788"/></svg><svg x="8440"><use xlink:href="#a"/><use xlink:href="#b" x="38.996" y="62.934"/><use xlink:href="#2"/><use xlink:href="#3" y="2.171"/><use xlink:href="#4" y="4.342"/><use xlink:href="#5" y="6.513"/><use xlink:href="#5" y="8.684"/><use xlink:href="#6" y="10.855"/><use xlink:href="#7" y="13.026"/><use xlink:href="#8" y="15.197"/><use xlink:href="#9" y="17.368"/><use xlink:href="#6" y="19.539"/><use xlink:href="#10" y="21.71"/><use xlink:href="#8" y="23.881"/><use xlink:href="#11" y="26.052"/><use xlink:href="#12" y="28.223"/><use xlink:href="#13" y="30.394"/><use xlink:href="#14" y="32.565"/><use xlink:href="#15" y="34.736"/><use xlink:href="#16" y="36.907"/><use xlink:href="#14" y="39.078"/><use xlink:href="#17" y="41.249"/><use xlink:href="#18" y="43.42"/><use xlink:href="#19" y="45.591"/><use xlink:href="#20" y="47.762"/><use xlink:href="#21" y="49.933"/><use xlink:href="#22" y="52.104"/><use xlink:href="#23" y="54.275"/><use xlink:href="#24" y="56.446"/><use xlink:href="#25" y="58.617"/><use xlink:href="#26" y="60.788"/><text y="64.629" class="c">SID:</text><text x="5.01" y="64.629" class="c">2</text><text x="7.014" y="64.629" class="c">PROCESSING:</text><text x="19.038" y="64.629" class="c">20210524_040440.WAV</text></svg><svg x="8651"><use xlink:href="#a"/><use xlink:href="#b" x="51.996" y="62.934"/><use xlink:href="#2"/><use xlink:href="#3" y="2.171"/><use xlink:href="#4" y="4.342"/><use xlink:href="#5" y="6.513"/><use xlink:href="#5" y="8.684"/><use xlink:href="#6" y="10.855"/><use xlink:href="#7" y="13.026"/><use xlink:href="#8" y="15.197"/><use xlink:href="#9" y="17.368"/><use xlink:href="#6" y="19.539"/><use xlink:href="#10" y="21.71"/><use xlink:href="#8" y="23.881"/><use xlink:href="#11" y="26.052"/><use xlink:href="#12" y="28.223"/><use xlink:href="#13" y="30.394"/><use xlink:href="#14" y="32.565"/><use xlink:href="#15" y="34.736"/><use xlink:href="#16" y="36.907"/><use xlink:href="#14" y="39.078"/><use xlink:href="#17" y="41.249"/><use xlink:href="#18" y="43.42"/><use xlink:href="#19" y="45.591"/><use xlink:href="#20" y="47.762"/><use xlink:href="#21" y="49.933"/><use xlink:href="#22" y="52.104"/><use xlink:href="#23" y="54.275"/><use xlink:href="#24" y="56.446"/><use xlink:href="#25" y="58.617"/><use xlink:href="#26" y="60.788"/><text y="64.629" class="c">SID:</text><text x="5.01" y="64.629" class="c">2</text><text x="7.014" y="64.629" class="c">PROCESSING:</text><text x="19.038" y="64.629" class="c">20210524_040440.WAV</text><text x="39.078" y="64.629" class="c">SPECIES:</text><text x="48.096" y="64.629" class="c">987</text></svg><svg x="8862"><use xlink:href="#a"/><use xlink:href="#b" x="65.996" y="62.934"/><use xlink:href="#2"/><use xlink:href="#3" y="2.171"/><use xlink:href="#4" y="4.342"/><use xlink:href="#5" y="6.513"/><use xlink:href="#5" y="8.684"/><use xlink:href="#6" y="10.855"/><use xlink:href="#7" y="13.026"/><use xlink:href="#8" y="15.197"/><use xlink:href="#9" y="17.368"/><use xlink:href="#6" y="19.539"/><use xlink:href="#10" y="21.71"/><use xlink:href="#8" y="23.881"/><use xlink:href="#11" y="26.052"/><use xlink:href="#12" y="28.223"/><use xlink:href="#13" y="30.394"/><use xlink:href="#14" y="32.565"/><use xlink:href="#15" y="34.736"/><use xlink:href="#16" y="36.907"/><use xlink:href="#14" y="39.078"/><use xlink:href="#17" y="41.249"/><use xlink:href="#18" y="43.42"/><use xlink:href="#19" y="45.591"/><use xlink:href="#20" y="47.762"/><use xlink:href="#21" y="49.933"/><use xlink:href="#22" y="52.104"/><use xlink:href="#23" y="54.275"/><use xlink:href="#24" y="56.446"/><use xlink:href="#25" y="58.617"/><use xlink:href="#26" y="60.788"/><text y="64.629" class="c">SID:</text><text x="5.01" y="64.629" class="c">2</text><text x="7.014" y="64.629" class="c">PROCESSING:</text><text x="19.038" y="64.629" class="c">20210524_040440.WAV</text><text x="39.078" y="64.629" class="c">SPECIES:</text><text x="48.096" y="64.629" class="c">987</text><text x="52.104" y="64.629" class="c">DETECTIONS:</text><text x="64.128" y="64.629" class="c">4</text></svg><svg x="9073"><use xlink:href="#a"/><use xlink:href="#b" x="-.004" y="65.105"/><use xlink:href="#2"/><use xlink:href="#3" y="2.171"/><use xlink:href="#4" y="4.342"/><use xlink:href="#5" y="6.513"/><use xlink:href="#5" y="8.684"/><use xlink:href="#6" y="10.855"/><use xlink:href="#7" y="13.026"/><use xlink:href="#8" y="15.197"/><use xlink:href="#9" y="17.368"/><use xlink:href="#6" y="19.539"/><use xlink:href="#10" y="21.71"/><use xlink:href="#8" y="23.881"/><use xlink:href="#11" y="26.052"/><use xlink:href="#12" y="28.223"/><use xlink:href="#13" y="30.394"/><use xlink:href="#14" y="32.565"/><use xlink:href="#15" y="34.736"/><use xlink:href="#16" y="36.907"/><use xlink:href="#14" y="39.078"/><use xlink:href="#17" y="41.249"/><use xlink:href="#18" y="43.42"/><use xlink:href="#19" y="45.591"/><use xlink:href="#20" y="47.762"/><use xlink:href="#21" y="49.933"/><use xlink:href="#22" y="52.104"/><use xlink:href="#23" y="54.275"/><use xlink:href="#24" y="56.446"/><use xlink:href="#25" y="58.617"/><use xlink:href="#26" y="60.788"/><use xlink:href="#27" y="62.959"/></svg><svg x="9284"><use xlink:href="#a"/><use xlink:href="#b" x="-.004" y="67.276"/><use xlink:href="#2"/><use xlink:href="#3" y="2.171"/><use xlink:href="#4" y="4.342"/><use xlink:href="#5" y="6.513"/><use xlink:href="#5" y="8.684"/><use xlink:href="#6" y="10.855"/><use xlink:href="#7" y="13.026"/><use xlink:href="#8" y="15.197"/><use xlink:href="#9" y="17.368"/><use xlink:href="#6" y="19.539"/><use xlink:href="#10" y="21.71"/><use xlink:href="#8" y="23.881"/><use xlink:href="#11" y="26.052"/><use xlink:href="#12" y="28.223"/><use xlink:href="#13" y="30.394"/><use xlink:href="#14" y="32.565"/><use xlink:href="#15" y="34.736"/><use xlink:href="#16" y="36.907"/><use xlink:href="#14" y="39.078"/><use xlink:href="#17" y="41.249"/><use xlink:href="#18" y="43.42"/><use xlink:href="#19" y="45.591"/><use xlink:href="#20" y="47.762"/><use xlink:href="#21" y="49.933"/><use xlink:href="#22" y="52.104"/><use xlink:href="#23" y="54.275"/><use xlink:href="#24" y="56.446"/><use xlink:href="#25" y="58.617"/><use xlink:href="#26" y="60.788"/><use xlink:href="#27" y="62.959"/><use xlink:href="#28" y="65.13"/></svg><svg x="9495"><use xlink:href="#a"/><use xlink:href="#b" x="-.004" y="67.276"/><use xlink:href="#2"/><use xlink:href="#3" y="2.171"/><use xlink:href="#4" y="4.342"/><use xlink:href="#5" y="6.513"/><use xlink:href="#5" y="8.684"/><use xlink:href="#6" y="10.855"/><use xlink:href="#7" y="13.026"/><use xlink:href="#8" y="15.197"/><use xlink:href="#9" y="17.368"/><use xlink:href="#6" y="19.539"/><use xlink:href="#10" y="21.71"/><use xlink:href="#8" y="23.881"/><use xlink:href="#11" y="26.052"/><use xlink:href="#12" y="28.223"/><use xlink:href="#13" y="30.394"/><use xlink:href="#14" y="32.565"/><use xlink:href="#15" y="34.736"/><use xlink:href="#16" y="36.907"/><use xlink:href="#14" y="39.078"/><use xlink:href="#17" y="41.249"/><use xlink:href="#18" y="43.42"/><use xlink:href="#19" y="45.591"/><use xlink:href="#20" y="47.762"/><use xlink:href="#21" y="49.933"/><use xlink:href="#22" y="52.104"/><use xlink:href="#23" y="54.275"/><use xlink:href="#24" y="56.446"/><use xlink:href="#25" y="58.617"/><use xlink:href="#26" y="60.788"/><use xlink:href="#27" y="62.959"/><use xlink:href="#28" y="65.13"/></svg><svg x="9706"><use xlink:href="#a"/><use xlink:href="#b" x="-.004" y="67.276"/><use xlink:href="#2"/><use xlink:href="#3" y="2.171"/><use xlink:href="#4" y="4.342"/><use xlink:href="#5" y="6.513"/><use xlink:href="#5" y="8.684"/><use xlink:href="#6" y="10.855"/><use xlink:href="#7" y="13.026"/><use xlink:href="#8" y="15.197"/><use xlink:href="#9" y="17.368"/><use xlink:href="#6" y="19.539"/><use xlink:href="#10" y="21.71"/><use xlink:href="#8" y="23.881"/><use xlink:href="#11" y="26.052"/><use xlink:href="#12" y="28.223"/><use xlink:href="#13" y="30.394"/><use xlink:href="#14" y="32.565"/><use xlink:href="#15" y="34.736"/><use xlink:href="#16" y="36.907"/><use xlink:href="#14" y="39.078"/><use xlink:href="#17" y="41.249"/><use xlink:href="#18" y="43.42"/><use xlink:href="#19" y="45.591"/><use xlink:href="#20" y="47.762"/><use xlink:href="#21" y="49.933"/><use xlink:href="#22" y="52.104"/><use xlink:href="#23" y="54.275"/><use xlink:href="#24" y="56.446"/><use xlink:href="#25" y="58.617"/><use xlink:href="#26" y="60.788"/><use xlink:href="#27" y="62.959"/><use xlink:href="#28" y="65.13"/></svg><svg x="9917"><use xlink:href="#a"/><use xlink:href="#b" x="22.996" y="67.276"/><use xlink:href="#2"/><use xlink:href="#3" y="2.171"/><use xlink:href="#4" y="4.342"/><use xlink:href="#5" y="6.513"/><use xlink:href="#5" y="8.684"/><use xlink:href="#6" y="10.855"/><use xlink:href="#7" y="13.026"/><use xlink:href="#8" y="15.197"/><use xlink:href="#9" y="17.368"/><use xlink:href="#6" y="19.539"/><use xlink:href="#10" y="21.71"/><use xlink:href="#8" y="23.881"/><use xlink:href="#11" y="26.052"/><use xlink:href="#12" y="28.223"/><use xlink:href="#13" y="30.394"/><use xlink:href="#14" y="32.565"/><use xlink:href="#15" y="34.736"/><use xlink:href="#16" y="36.907"/><use xlink:href="#14" y="39.078"/><use xlink:href="#17" y="41.249"/><use xlink:href="#18" y="43.42"/><use xlink:href="#19" y="45.591"/><use xlink:href="#20" y="47.762"/><use xlink:href="#21" y="49.933"/><use xlink:href="#22" y="52.104"/><use xlink:href="#23" y="54.275"/><use xlink:href="#24" y="56.446"/><use xlink:href="#25" y="58.617"/><use xlink:href="#26" y="60.788"/><use xlink:href="#27" y="62.959"/><use xlink:href="#28" y="65.13"/><use xlink:href="#1" y="67.301"/></svg><svg x="10128"><use xlink:href="#a"/><use xlink:href="#b" x="22.996" y="67.276"/><use xlink:href="#2"/><use xlink:href="#3" y="2.171"/><use xlink:href="#4" y="4.342"/><use xlink:href="#5" y="6.513"/><use xlink:href="#5" y="8.684"/><use xlink:href="#6" y="10.855"/><use xlink:href="#7" y="13.026"/><use xlink:href="#8" y="15.197"/><use xlink:href="#9" y="17.368"/><use xlink:href="#6" y="19.539"/><use xlink:href="#10" y="21.71"/><use xlink:href="#8" y="23.881"/><use xlink:href="#11" y="26.052"/><use xlink:href="#12" y="28.223"/><use xlink:href="#13" y="30.394"/><use xlink:href="#14" y="32.565"/><use xlink:href="#15" y="34.736"/><use xlink:href="#16" y="36.907"/><use xlink:href="#14" y="39.078"/><use xlink:href="#17" y="41.249"/><use xlink:href="#18" y="43.42"/><use xlink:href="#19" y="45.591"/><use xlink:href="#20" y="47.762"/><use xlink:href="#21" y="49.933"/><use xlink:href="#22" y="52.104"/><use xlink:href="#23" y="54.275"/><use xlink:href="#24" y="56.446"/><use xlink:href="#25" y="58.617"/><use xlink:href="#26" y="60.788"/><use xlink:href="#27" y="62.959"/><use xlink:href="#28" y="65.13"/><use xlink:href="#1" y="67.301"/></svg><svg x="10339"><use xlink:href="#a"/><use xlink:href="#b" x="-.004" y="69.447"/><use xlink:href="#2"/><use xlink:href="#3" y="2.171"/><use xlink:href="#4" y="4.342"/><use xlink:href="#5" y="6.513"/><use xlink:href="#5" y="8.684"/><use xlink:href="#6" y="10.855"/><use xlink:href="#7" y="13.026"/><use xlink:href="#8" y="15.197"/><use xlink:href="#9" y="17.368"/><use xlink:href="#6" y="19.539"/><use xlink:href="#10" y="21.71"/><use xlink:href="#8" y="23.881"/><use xlink:href="#11" y="26.052"/><use xlink:href="#12" y="28.223"/><use xlink:href="#13" y="30.394"/><use xlink:href="#14" y="32.565"/><use xlink:href="#15" y="34.736"/><use xlink:href="#16" y="36.907"/><use xlink:href="#14" y="39.078"/><use xlink:href="#17" y="41.249"/><use xlink:href="#18" y="43.42"/><use xlink:href="#19" y="45.591"/><use xlink:href="#20" y="47.762"/><use xlink:href="#21" y="49.933"/><use xlink:href="#22" y="52.104"/><use xlink:href="#23" y="54.275"/><use xlink:href="#24" y="56.446"/><use xlink:href="#25" y="58.617"/><use xlink:href="#26" y="60.788"/><use xlink:href="#27" y="62.959"/><use xlink:href="#28" y="65.13"/><use xlink:href="#1" y="67.301"/></svg></svg></g></g></svg></svg>